<?xml version="1.0" encoding="utf-8"?>
<!DOCTYPE svg PUBLIC "-//W3C//DTD SVG 1.0//EN" "http://www.w3.org/TR/2001/REC-SVG-20010904/DTD/svg10.dtd">
<svg xmlns="http://www.w3.org/2000/svg" xml:space="preserve" xmlns:xlink="http://www.w3.org/1999/xlink" width="123" height="123" viewBox="0 0 123 123">
<desc></desc>
<rect width="123" height="123" fill="#ffffff" cx="0" cy="0" />
<defs>
<rect id="p" width="3" height="3" />
</defs>
<g fill="#000000">
<use x="12" y="12" xlink:href="#p" />
<use x="15" y="12" xlink:href="#p" />
<use x="18" y="12" xlink:href="#p" />
<use x="21" y="12" xlink:href="#p" />
<use x="24" y="12" xlink:href="#p" />
<use x="27" y="12" xlink:href="#p" />
<use x="30" y="12" xlink:href="#p" />
<use x="36" y="12" xlink:href="#p" />
<use x="39" y="12" xlink:href="#p" />
<use x="51" y="12" xlink:href="#p" />
<use x="54" y="12" xlink:href="#p" />
<use x="57" y="12" xlink:href="#p" />
<use x="60" y="12" xlink:href="#p" />
<use x="63" y="12" xlink:href="#p" />
<use x="78" y="12" xlink:href="#p" />
<use x="84" y="12" xlink:href="#p" />
<use x="90" y="12" xlink:href="#p" />
<use x="93" y="12" xlink:href="#p" />
<use x="96" y="12" xlink:href="#p" />
<use x="99" y="12" xlink:href="#p" />
<use x="102" y="12" xlink:href="#p" />
<use x="105" y="12" xlink:href="#p" />
<use x="108" y="12" xlink:href="#p" />
<use x="12" y="15" xlink:href="#p" />
<use x="30" y="15" xlink:href="#p" />
<use x="54" y="15" xlink:href="#p" />
<use x="57" y="15" xlink:href="#p" />
<use x="69" y="15" xlink:href="#p" />
<use x="75" y="15" xlink:href="#p" />
<use x="81" y="15" xlink:href="#p" />
<use x="90" y="15" xlink:href="#p" />
<use x="108" y="15" xlink:href="#p" />
<use x="12" y="18" xlink:href="#p" />
<use x="18" y="18" xlink:href="#p" />
<use x="21" y="18" xlink:href="#p" />
<use x="24" y="18" xlink:href="#p" />
<use x="30" y="18" xlink:href="#p" />
<use x="36" y="18" xlink:href="#p" />
<use x="45" y="18" xlink:href="#p" />
<use x="48" y="18" xlink:href="#p" />
<use x="60" y="18" xlink:href="#p" />
<use x="63" y="18" xlink:href="#p" />
<use x="75" y="18" xlink:href="#p" />
<use x="81" y="18" xlink:href="#p" />
<use x="90" y="18" xlink:href="#p" />
<use x="96" y="18" xlink:href="#p" />
<use x="99" y="18" xlink:href="#p" />
<use x="102" y="18" xlink:href="#p" />
<use x="108" y="18" xlink:href="#p" />
<use x="12" y="21" xlink:href="#p" />
<use x="18" y="21" xlink:href="#p" />
<use x="21" y="21" xlink:href="#p" />
<use x="24" y="21" xlink:href="#p" />
<use x="30" y="21" xlink:href="#p" />
<use x="36" y="21" xlink:href="#p" />
<use x="39" y="21" xlink:href="#p" />
<use x="45" y="21" xlink:href="#p" />
<use x="54" y="21" xlink:href="#p" />
<use x="57" y="21" xlink:href="#p" />
<use x="60" y="21" xlink:href="#p" />
<use x="66" y="21" xlink:href="#p" />
<use x="72" y="21" xlink:href="#p" />
<use x="75" y="21" xlink:href="#p" />
<use x="78" y="21" xlink:href="#p" />
<use x="90" y="21" xlink:href="#p" />
<use x="96" y="21" xlink:href="#p" />
<use x="99" y="21" xlink:href="#p" />
<use x="102" y="21" xlink:href="#p" />
<use x="108" y="21" xlink:href="#p" />
<use x="12" y="24" xlink:href="#p" />
<use x="18" y="24" xlink:href="#p" />
<use x="21" y="24" xlink:href="#p" />
<use x="24" y="24" xlink:href="#p" />
<use x="30" y="24" xlink:href="#p" />
<use x="36" y="24" xlink:href="#p" />
<use x="39" y="24" xlink:href="#p" />
<use x="42" y="24" xlink:href="#p" />
<use x="45" y="24" xlink:href="#p" />
<use x="66" y="24" xlink:href="#p" />
<use x="78" y="24" xlink:href="#p" />
<use x="81" y="24" xlink:href="#p" />
<use x="90" y="24" xlink:href="#p" />
<use x="96" y="24" xlink:href="#p" />
<use x="99" y="24" xlink:href="#p" />
<use x="102" y="24" xlink:href="#p" />
<use x="108" y="24" xlink:href="#p" />
<use x="12" y="27" xlink:href="#p" />
<use x="30" y="27" xlink:href="#p" />
<use x="39" y="27" xlink:href="#p" />
<use x="48" y="27" xlink:href="#p" />
<use x="51" y="27" xlink:href="#p" />
<use x="57" y="27" xlink:href="#p" />
<use x="60" y="27" xlink:href="#p" />
<use x="69" y="27" xlink:href="#p" />
<use x="72" y="27" xlink:href="#p" />
<use x="75" y="27" xlink:href="#p" />
<use x="81" y="27" xlink:href="#p" />
<use x="90" y="27" xlink:href="#p" />
<use x="108" y="27" xlink:href="#p" />
<use x="12" y="30" xlink:href="#p" />
<use x="15" y="30" xlink:href="#p" />
<use x="18" y="30" xlink:href="#p" />
<use x="21" y="30" xlink:href="#p" />
<use x="24" y="30" xlink:href="#p" />
<use x="27" y="30" xlink:href="#p" />
<use x="30" y="30" xlink:href="#p" />
<use x="36" y="30" xlink:href="#p" />
<use x="42" y="30" xlink:href="#p" />
<use x="48" y="30" xlink:href="#p" />
<use x="54" y="30" xlink:href="#p" />
<use x="60" y="30" xlink:href="#p" />
<use x="66" y="30" xlink:href="#p" />
<use x="72" y="30" xlink:href="#p" />
<use x="78" y="30" xlink:href="#p" />
<use x="84" y="30" xlink:href="#p" />
<use x="90" y="30" xlink:href="#p" />
<use x="93" y="30" xlink:href="#p" />
<use x="96" y="30" xlink:href="#p" />
<use x="99" y="30" xlink:href="#p" />
<use x="102" y="30" xlink:href="#p" />
<use x="105" y="30" xlink:href="#p" />
<use x="108" y="30" xlink:href="#p" />
<use x="39" y="33" xlink:href="#p" />
<use x="45" y="33" xlink:href="#p" />
<use x="57" y="33" xlink:href="#p" />
<use x="66" y="33" xlink:href="#p" />
<use x="81" y="33" xlink:href="#p" />
<use x="12" y="36" xlink:href="#p" />
<use x="15" y="36" xlink:href="#p" />
<use x="18" y="36" xlink:href="#p" />
<use x="21" y="36" xlink:href="#p" />
<use x="30" y="36" xlink:href="#p" />
<use x="36" y="36" xlink:href="#p" />
<use x="51" y="36" xlink:href="#p" />
<use x="54" y="36" xlink:href="#p" />
<use x="72" y="36" xlink:href="#p" />
<use x="78" y="36" xlink:href="#p" />
<use x="81" y="36" xlink:href="#p" />
<use x="84" y="36" xlink:href="#p" />
<use x="87" y="36" xlink:href="#p" />
<use x="96" y="36" xlink:href="#p" />
<use x="99" y="36" xlink:href="#p" />
<use x="102" y="36" xlink:href="#p" />
<use x="108" y="36" xlink:href="#p" />
<use x="27" y="39" xlink:href="#p" />
<use x="33" y="39" xlink:href="#p" />
<use x="36" y="39" xlink:href="#p" />
<use x="39" y="39" xlink:href="#p" />
<use x="51" y="39" xlink:href="#p" />
<use x="54" y="39" xlink:href="#p" />
<use x="57" y="39" xlink:href="#p" />
<use x="63" y="39" xlink:href="#p" />
<use x="66" y="39" xlink:href="#p" />
<use x="72" y="39" xlink:href="#p" />
<use x="75" y="39" xlink:href="#p" />
<use x="78" y="39" xlink:href="#p" />
<use x="84" y="39" xlink:href="#p" />
<use x="87" y="39" xlink:href="#p" />
<use x="90" y="39" xlink:href="#p" />
<use x="93" y="39" xlink:href="#p" />
<use x="99" y="39" xlink:href="#p" />
<use x="105" y="39" xlink:href="#p" />
<use x="108" y="39" xlink:href="#p" />
<use x="15" y="42" xlink:href="#p" />
<use x="18" y="42" xlink:href="#p" />
<use x="24" y="42" xlink:href="#p" />
<use x="27" y="42" xlink:href="#p" />
<use x="30" y="42" xlink:href="#p" />
<use x="36" y="42" xlink:href="#p" />
<use x="54" y="42" xlink:href="#p" />
<use x="57" y="42" xlink:href="#p" />
<use x="60" y="42" xlink:href="#p" />
<use x="63" y="42" xlink:href="#p" />
<use x="66" y="42" xlink:href="#p" />
<use x="81" y="42" xlink:href="#p" />
<use x="87" y="42" xlink:href="#p" />
<use x="90" y="42" xlink:href="#p" />
<use x="99" y="42" xlink:href="#p" />
<use x="102" y="42" xlink:href="#p" />
<use x="108" y="42" xlink:href="#p" />
<use x="15" y="45" xlink:href="#p" />
<use x="21" y="45" xlink:href="#p" />
<use x="24" y="45" xlink:href="#p" />
<use x="45" y="45" xlink:href="#p" />
<use x="48" y="45" xlink:href="#p" />
<use x="51" y="45" xlink:href="#p" />
<use x="54" y="45" xlink:href="#p" />
<use x="63" y="45" xlink:href="#p" />
<use x="69" y="45" xlink:href="#p" />
<use x="72" y="45" xlink:href="#p" />
<use x="75" y="45" xlink:href="#p" />
<use x="78" y="45" xlink:href="#p" />
<use x="84" y="45" xlink:href="#p" />
<use x="90" y="45" xlink:href="#p" />
<use x="96" y="45" xlink:href="#p" />
<use x="102" y="45" xlink:href="#p" />
<use x="105" y="45" xlink:href="#p" />
<use x="12" y="48" xlink:href="#p" />
<use x="27" y="48" xlink:href="#p" />
<use x="30" y="48" xlink:href="#p" />
<use x="33" y="48" xlink:href="#p" />
<use x="39" y="48" xlink:href="#p" />
<use x="45" y="48" xlink:href="#p" />
<use x="60" y="48" xlink:href="#p" />
<use x="66" y="48" xlink:href="#p" />
<use x="69" y="48" xlink:href="#p" />
<use x="72" y="48" xlink:href="#p" />
<use x="75" y="48" xlink:href="#p" />
<use x="87" y="48" xlink:href="#p" />
<use x="93" y="48" xlink:href="#p" />
<use x="96" y="48" xlink:href="#p" />
<use x="102" y="48" xlink:href="#p" />
<use x="12" y="51" xlink:href="#p" />
<use x="15" y="51" xlink:href="#p" />
<use x="18" y="51" xlink:href="#p" />
<use x="21" y="51" xlink:href="#p" />
<use x="39" y="51" xlink:href="#p" />
<use x="42" y="51" xlink:href="#p" />
<use x="45" y="51" xlink:href="#p" />
<use x="51" y="51" xlink:href="#p" />
<use x="60" y="51" xlink:href="#p" />
<use x="72" y="51" xlink:href="#p" />
<use x="78" y="51" xlink:href="#p" />
<use x="81" y="51" xlink:href="#p" />
<use x="84" y="51" xlink:href="#p" />
<use x="99" y="51" xlink:href="#p" />
<use x="12" y="54" xlink:href="#p" />
<use x="15" y="54" xlink:href="#p" />
<use x="18" y="54" xlink:href="#p" />
<use x="24" y="54" xlink:href="#p" />
<use x="30" y="54" xlink:href="#p" />
<use x="36" y="54" xlink:href="#p" />
<use x="42" y="54" xlink:href="#p" />
<use x="48" y="54" xlink:href="#p" />
<use x="72" y="54" xlink:href="#p" />
<use x="75" y="54" xlink:href="#p" />
<use x="78" y="54" xlink:href="#p" />
<use x="90" y="54" xlink:href="#p" />
<use x="96" y="54" xlink:href="#p" />
<use x="102" y="54" xlink:href="#p" />
<use x="105" y="54" xlink:href="#p" />
<use x="12" y="57" xlink:href="#p" />
<use x="18" y="57" xlink:href="#p" />
<use x="27" y="57" xlink:href="#p" />
<use x="33" y="57" xlink:href="#p" />
<use x="36" y="57" xlink:href="#p" />
<use x="39" y="57" xlink:href="#p" />
<use x="48" y="57" xlink:href="#p" />
<use x="57" y="57" xlink:href="#p" />
<use x="60" y="57" xlink:href="#p" />
<use x="66" y="57" xlink:href="#p" />
<use x="72" y="57" xlink:href="#p" />
<use x="78" y="57" xlink:href="#p" />
<use x="87" y="57" xlink:href="#p" />
<use x="102" y="57" xlink:href="#p" />
<use x="105" y="57" xlink:href="#p" />
<use x="12" y="60" xlink:href="#p" />
<use x="30" y="60" xlink:href="#p" />
<use x="45" y="60" xlink:href="#p" />
<use x="60" y="60" xlink:href="#p" />
<use x="63" y="60" xlink:href="#p" />
<use x="69" y="60" xlink:href="#p" />
<use x="78" y="60" xlink:href="#p" />
<use x="84" y="60" xlink:href="#p" />
<use x="93" y="60" xlink:href="#p" />
<use x="96" y="60" xlink:href="#p" />
<use x="99" y="60" xlink:href="#p" />
<use x="12" y="63" xlink:href="#p" />
<use x="36" y="63" xlink:href="#p" />
<use x="42" y="63" xlink:href="#p" />
<use x="48" y="63" xlink:href="#p" />
<use x="51" y="63" xlink:href="#p" />
<use x="60" y="63" xlink:href="#p" />
<use x="63" y="63" xlink:href="#p" />
<use x="69" y="63" xlink:href="#p" />
<use x="72" y="63" xlink:href="#p" />
<use x="84" y="63" xlink:href="#p" />
<use x="90" y="63" xlink:href="#p" />
<use x="96" y="63" xlink:href="#p" />
<use x="99" y="63" xlink:href="#p" />
<use x="108" y="63" xlink:href="#p" />
<use x="12" y="66" xlink:href="#p" />
<use x="15" y="66" xlink:href="#p" />
<use x="21" y="66" xlink:href="#p" />
<use x="24" y="66" xlink:href="#p" />
<use x="30" y="66" xlink:href="#p" />
<use x="36" y="66" xlink:href="#p" />
<use x="45" y="66" xlink:href="#p" />
<use x="48" y="66" xlink:href="#p" />
<use x="60" y="66" xlink:href="#p" />
<use x="63" y="66" xlink:href="#p" />
<use x="81" y="66" xlink:href="#p" />
<use x="84" y="66" xlink:href="#p" />
<use x="93" y="66" xlink:href="#p" />
<use x="102" y="66" xlink:href="#p" />
<use x="105" y="66" xlink:href="#p" />
<use x="15" y="69" xlink:href="#p" />
<use x="18" y="69" xlink:href="#p" />
<use x="21" y="69" xlink:href="#p" />
<use x="27" y="69" xlink:href="#p" />
<use x="36" y="69" xlink:href="#p" />
<use x="39" y="69" xlink:href="#p" />
<use x="42" y="69" xlink:href="#p" />
<use x="48" y="69" xlink:href="#p" />
<use x="54" y="69" xlink:href="#p" />
<use x="57" y="69" xlink:href="#p" />
<use x="63" y="69" xlink:href="#p" />
<use x="66" y="69" xlink:href="#p" />
<use x="69" y="69" xlink:href="#p" />
<use x="72" y="69" xlink:href="#p" />
<use x="81" y="69" xlink:href="#p" />
<use x="84" y="69" xlink:href="#p" />
<use x="93" y="69" xlink:href="#p" />
<use x="99" y="69" xlink:href="#p" />
<use x="102" y="69" xlink:href="#p" />
<use x="15" y="72" xlink:href="#p" />
<use x="24" y="72" xlink:href="#p" />
<use x="30" y="72" xlink:href="#p" />
<use x="39" y="72" xlink:href="#p" />
<use x="45" y="72" xlink:href="#p" />
<use x="48" y="72" xlink:href="#p" />
<use x="51" y="72" xlink:href="#p" />
<use x="57" y="72" xlink:href="#p" />
<use x="63" y="72" xlink:href="#p" />
<use x="69" y="72" xlink:href="#p" />
<use x="72" y="72" xlink:href="#p" />
<use x="84" y="72" xlink:href="#p" />
<use x="87" y="72" xlink:href="#p" />
<use x="93" y="72" xlink:href="#p" />
<use x="102" y="72" xlink:href="#p" />
<use x="105" y="72" xlink:href="#p" />
<use x="12" y="75" xlink:href="#p" />
<use x="18" y="75" xlink:href="#p" />
<use x="21" y="75" xlink:href="#p" />
<use x="24" y="75" xlink:href="#p" />
<use x="27" y="75" xlink:href="#p" />
<use x="33" y="75" xlink:href="#p" />
<use x="39" y="75" xlink:href="#p" />
<use x="42" y="75" xlink:href="#p" />
<use x="48" y="75" xlink:href="#p" />
<use x="51" y="75" xlink:href="#p" />
<use x="57" y="75" xlink:href="#p" />
<use x="60" y="75" xlink:href="#p" />
<use x="72" y="75" xlink:href="#p" />
<use x="78" y="75" xlink:href="#p" />
<use x="87" y="75" xlink:href="#p" />
<use x="99" y="75" xlink:href="#p" />
<use x="105" y="75" xlink:href="#p" />
<use x="108" y="75" xlink:href="#p" />
<use x="24" y="78" xlink:href="#p" />
<use x="27" y="78" xlink:href="#p" />
<use x="30" y="78" xlink:href="#p" />
<use x="42" y="78" xlink:href="#p" />
<use x="45" y="78" xlink:href="#p" />
<use x="48" y="78" xlink:href="#p" />
<use x="51" y="78" xlink:href="#p" />
<use x="63" y="78" xlink:href="#p" />
<use x="69" y="78" xlink:href="#p" />
<use x="78" y="78" xlink:href="#p" />
<use x="87" y="78" xlink:href="#p" />
<use x="90" y="78" xlink:href="#p" />
<use x="93" y="78" xlink:href="#p" />
<use x="99" y="78" xlink:href="#p" />
<use x="108" y="78" xlink:href="#p" />
<use x="15" y="81" xlink:href="#p" />
<use x="24" y="81" xlink:href="#p" />
<use x="33" y="81" xlink:href="#p" />
<use x="36" y="81" xlink:href="#p" />
<use x="39" y="81" xlink:href="#p" />
<use x="42" y="81" xlink:href="#p" />
<use x="57" y="81" xlink:href="#p" />
<use x="60" y="81" xlink:href="#p" />
<use x="66" y="81" xlink:href="#p" />
<use x="69" y="81" xlink:href="#p" />
<use x="78" y="81" xlink:href="#p" />
<use x="81" y="81" xlink:href="#p" />
<use x="87" y="81" xlink:href="#p" />
<use x="102" y="81" xlink:href="#p" />
<use x="105" y="81" xlink:href="#p" />
<use x="12" y="84" xlink:href="#p" />
<use x="18" y="84" xlink:href="#p" />
<use x="27" y="84" xlink:href="#p" />
<use x="30" y="84" xlink:href="#p" />
<use x="33" y="84" xlink:href="#p" />
<use x="48" y="84" xlink:href="#p" />
<use x="54" y="84" xlink:href="#p" />
<use x="57" y="84" xlink:href="#p" />
<use x="66" y="84" xlink:href="#p" />
<use x="69" y="84" xlink:href="#p" />
<use x="72" y="84" xlink:href="#p" />
<use x="75" y="84" xlink:href="#p" />
<use x="78" y="84" xlink:href="#p" />
<use x="81" y="84" xlink:href="#p" />
<use x="84" y="84" xlink:href="#p" />
<use x="87" y="84" xlink:href="#p" />
<use x="90" y="84" xlink:href="#p" />
<use x="93" y="84" xlink:href="#p" />
<use x="96" y="84" xlink:href="#p" />
<use x="99" y="84" xlink:href="#p" />
<use x="105" y="84" xlink:href="#p" />
<use x="36" y="87" xlink:href="#p" />
<use x="45" y="87" xlink:href="#p" />
<use x="48" y="87" xlink:href="#p" />
<use x="54" y="87" xlink:href="#p" />
<use x="63" y="87" xlink:href="#p" />
<use x="66" y="87" xlink:href="#p" />
<use x="78" y="87" xlink:href="#p" />
<use x="84" y="87" xlink:href="#p" />
<use x="96" y="87" xlink:href="#p" />
<use x="99" y="87" xlink:href="#p" />
<use x="12" y="90" xlink:href="#p" />
<use x="15" y="90" xlink:href="#p" />
<use x="18" y="90" xlink:href="#p" />
<use x="21" y="90" xlink:href="#p" />
<use x="24" y="90" xlink:href="#p" />
<use x="27" y="90" xlink:href="#p" />
<use x="30" y="90" xlink:href="#p" />
<use x="42" y="90" xlink:href="#p" />
<use x="45" y="90" xlink:href="#p" />
<use x="51" y="90" xlink:href="#p" />
<use x="63" y="90" xlink:href="#p" />
<use x="66" y="90" xlink:href="#p" />
<use x="69" y="90" xlink:href="#p" />
<use x="72" y="90" xlink:href="#p" />
<use x="75" y="90" xlink:href="#p" />
<use x="78" y="90" xlink:href="#p" />
<use x="84" y="90" xlink:href="#p" />
<use x="90" y="90" xlink:href="#p" />
<use x="96" y="90" xlink:href="#p" />
<use x="102" y="90" xlink:href="#p" />
<use x="105" y="90" xlink:href="#p" />
<use x="12" y="93" xlink:href="#p" />
<use x="30" y="93" xlink:href="#p" />
<use x="42" y="93" xlink:href="#p" />
<use x="45" y="93" xlink:href="#p" />
<use x="54" y="93" xlink:href="#p" />
<use x="57" y="93" xlink:href="#p" />
<use x="60" y="93" xlink:href="#p" />
<use x="66" y="93" xlink:href="#p" />
<use x="72" y="93" xlink:href="#p" />
<use x="81" y="93" xlink:href="#p" />
<use x="84" y="93" xlink:href="#p" />
<use x="96" y="93" xlink:href="#p" />
<use x="102" y="93" xlink:href="#p" />
<use x="105" y="93" xlink:href="#p" />
<use x="108" y="93" xlink:href="#p" />
<use x="12" y="96" xlink:href="#p" />
<use x="18" y="96" xlink:href="#p" />
<use x="21" y="96" xlink:href="#p" />
<use x="24" y="96" xlink:href="#p" />
<use x="30" y="96" xlink:href="#p" />
<use x="48" y="96" xlink:href="#p" />
<use x="54" y="96" xlink:href="#p" />
<use x="60" y="96" xlink:href="#p" />
<use x="81" y="96" xlink:href="#p" />
<use x="84" y="96" xlink:href="#p" />
<use x="87" y="96" xlink:href="#p" />
<use x="90" y="96" xlink:href="#p" />
<use x="93" y="96" xlink:href="#p" />
<use x="96" y="96" xlink:href="#p" />
<use x="99" y="96" xlink:href="#p" />
<use x="102" y="96" xlink:href="#p" />
<use x="108" y="96" xlink:href="#p" />
<use x="12" y="99" xlink:href="#p" />
<use x="18" y="99" xlink:href="#p" />
<use x="21" y="99" xlink:href="#p" />
<use x="24" y="99" xlink:href="#p" />
<use x="30" y="99" xlink:href="#p" />
<use x="36" y="99" xlink:href="#p" />
<use x="39" y="99" xlink:href="#p" />
<use x="42" y="99" xlink:href="#p" />
<use x="54" y="99" xlink:href="#p" />
<use x="63" y="99" xlink:href="#p" />
<use x="69" y="99" xlink:href="#p" />
<use x="84" y="99" xlink:href="#p" />
<use x="87" y="99" xlink:href="#p" />
<use x="93" y="99" xlink:href="#p" />
<use x="99" y="99" xlink:href="#p" />
<use x="105" y="99" xlink:href="#p" />
<use x="12" y="102" xlink:href="#p" />
<use x="18" y="102" xlink:href="#p" />
<use x="21" y="102" xlink:href="#p" />
<use x="24" y="102" xlink:href="#p" />
<use x="30" y="102" xlink:href="#p" />
<use x="36" y="102" xlink:href="#p" />
<use x="51" y="102" xlink:href="#p" />
<use x="54" y="102" xlink:href="#p" />
<use x="57" y="102" xlink:href="#p" />
<use x="63" y="102" xlink:href="#p" />
<use x="66" y="102" xlink:href="#p" />
<use x="69" y="102" xlink:href="#p" />
<use x="81" y="102" xlink:href="#p" />
<use x="84" y="102" xlink:href="#p" />
<use x="87" y="102" xlink:href="#p" />
<use x="90" y="102" xlink:href="#p" />
<use x="102" y="102" xlink:href="#p" />
<use x="12" y="105" xlink:href="#p" />
<use x="30" y="105" xlink:href="#p" />
<use x="36" y="105" xlink:href="#p" />
<use x="42" y="105" xlink:href="#p" />
<use x="45" y="105" xlink:href="#p" />
<use x="51" y="105" xlink:href="#p" />
<use x="54" y="105" xlink:href="#p" />
<use x="69" y="105" xlink:href="#p" />
<use x="72" y="105" xlink:href="#p" />
<use x="75" y="105" xlink:href="#p" />
<use x="78" y="105" xlink:href="#p" />
<use x="81" y="105" xlink:href="#p" />
<use x="90" y="105" xlink:href="#p" />
<use x="93" y="105" xlink:href="#p" />
<use x="96" y="105" xlink:href="#p" />
<use x="99" y="105" xlink:href="#p" />
<use x="108" y="105" xlink:href="#p" />
<use x="12" y="108" xlink:href="#p" />
<use x="15" y="108" xlink:href="#p" />
<use x="18" y="108" xlink:href="#p" />
<use x="21" y="108" xlink:href="#p" />
<use x="24" y="108" xlink:href="#p" />
<use x="27" y="108" xlink:href="#p" />
<use x="30" y="108" xlink:href="#p" />
<use x="36" y="108" xlink:href="#p" />
<use x="39" y="108" xlink:href="#p" />
<use x="42" y="108" xlink:href="#p" />
<use x="51" y="108" xlink:href="#p" />
<use x="54" y="108" xlink:href="#p" />
<use x="57" y="108" xlink:href="#p" />
<use x="72" y="108" xlink:href="#p" />
<use x="78" y="108" xlink:href="#p" />
<use x="96" y="108" xlink:href="#p" />
</g>
</svg>