<?xml version="1.0" encoding="utf-8"?>
<!DOCTYPE svg PUBLIC "-//W3C//DTD SVG 1.0//EN" "http://www.w3.org/TR/2001/REC-SVG-20010904/DTD/svg10.dtd">
<svg xmlns="http://www.w3.org/2000/svg" xml:space="preserve" xmlns:xlink="http://www.w3.org/1999/xlink" width="123" height="123" viewBox="0 0 123 123">
<desc></desc>
<rect width="123" height="123" fill="#ffffff" cx="0" cy="0" />
<defs>
<rect id="p" width="3" height="3" />
</defs>
<g fill="#000000">
<use x="12" y="12" xlink:href="#p" />
<use x="15" y="12" xlink:href="#p" />
<use x="18" y="12" xlink:href="#p" />
<use x="21" y="12" xlink:href="#p" />
<use x="24" y="12" xlink:href="#p" />
<use x="27" y="12" xlink:href="#p" />
<use x="30" y="12" xlink:href="#p" />
<use x="36" y="12" xlink:href="#p" />
<use x="39" y="12" xlink:href="#p" />
<use x="42" y="12" xlink:href="#p" />
<use x="48" y="12" xlink:href="#p" />
<use x="54" y="12" xlink:href="#p" />
<use x="60" y="12" xlink:href="#p" />
<use x="63" y="12" xlink:href="#p" />
<use x="66" y="12" xlink:href="#p" />
<use x="69" y="12" xlink:href="#p" />
<use x="72" y="12" xlink:href="#p" />
<use x="78" y="12" xlink:href="#p" />
<use x="90" y="12" xlink:href="#p" />
<use x="93" y="12" xlink:href="#p" />
<use x="96" y="12" xlink:href="#p" />
<use x="99" y="12" xlink:href="#p" />
<use x="102" y="12" xlink:href="#p" />
<use x="105" y="12" xlink:href="#p" />
<use x="108" y="12" xlink:href="#p" />
<use x="12" y="15" xlink:href="#p" />
<use x="30" y="15" xlink:href="#p" />
<use x="36" y="15" xlink:href="#p" />
<use x="39" y="15" xlink:href="#p" />
<use x="42" y="15" xlink:href="#p" />
<use x="57" y="15" xlink:href="#p" />
<use x="66" y="15" xlink:href="#p" />
<use x="69" y="15" xlink:href="#p" />
<use x="78" y="15" xlink:href="#p" />
<use x="90" y="15" xlink:href="#p" />
<use x="108" y="15" xlink:href="#p" />
<use x="12" y="18" xlink:href="#p" />
<use x="18" y="18" xlink:href="#p" />
<use x="21" y="18" xlink:href="#p" />
<use x="24" y="18" xlink:href="#p" />
<use x="30" y="18" xlink:href="#p" />
<use x="36" y="18" xlink:href="#p" />
<use x="42" y="18" xlink:href="#p" />
<use x="45" y="18" xlink:href="#p" />
<use x="51" y="18" xlink:href="#p" />
<use x="72" y="18" xlink:href="#p" />
<use x="78" y="18" xlink:href="#p" />
<use x="90" y="18" xlink:href="#p" />
<use x="96" y="18" xlink:href="#p" />
<use x="99" y="18" xlink:href="#p" />
<use x="102" y="18" xlink:href="#p" />
<use x="108" y="18" xlink:href="#p" />
<use x="12" y="21" xlink:href="#p" />
<use x="18" y="21" xlink:href="#p" />
<use x="21" y="21" xlink:href="#p" />
<use x="24" y="21" xlink:href="#p" />
<use x="30" y="21" xlink:href="#p" />
<use x="36" y="21" xlink:href="#p" />
<use x="39" y="21" xlink:href="#p" />
<use x="45" y="21" xlink:href="#p" />
<use x="51" y="21" xlink:href="#p" />
<use x="60" y="21" xlink:href="#p" />
<use x="63" y="21" xlink:href="#p" />
<use x="69" y="21" xlink:href="#p" />
<use x="75" y="21" xlink:href="#p" />
<use x="78" y="21" xlink:href="#p" />
<use x="84" y="21" xlink:href="#p" />
<use x="90" y="21" xlink:href="#p" />
<use x="96" y="21" xlink:href="#p" />
<use x="99" y="21" xlink:href="#p" />
<use x="102" y="21" xlink:href="#p" />
<use x="108" y="21" xlink:href="#p" />
<use x="12" y="24" xlink:href="#p" />
<use x="18" y="24" xlink:href="#p" />
<use x="21" y="24" xlink:href="#p" />
<use x="24" y="24" xlink:href="#p" />
<use x="30" y="24" xlink:href="#p" />
<use x="51" y="24" xlink:href="#p" />
<use x="54" y="24" xlink:href="#p" />
<use x="60" y="24" xlink:href="#p" />
<use x="63" y="24" xlink:href="#p" />
<use x="66" y="24" xlink:href="#p" />
<use x="69" y="24" xlink:href="#p" />
<use x="81" y="24" xlink:href="#p" />
<use x="90" y="24" xlink:href="#p" />
<use x="96" y="24" xlink:href="#p" />
<use x="99" y="24" xlink:href="#p" />
<use x="102" y="24" xlink:href="#p" />
<use x="108" y="24" xlink:href="#p" />
<use x="12" y="27" xlink:href="#p" />
<use x="30" y="27" xlink:href="#p" />
<use x="36" y="27" xlink:href="#p" />
<use x="45" y="27" xlink:href="#p" />
<use x="48" y="27" xlink:href="#p" />
<use x="51" y="27" xlink:href="#p" />
<use x="54" y="27" xlink:href="#p" />
<use x="63" y="27" xlink:href="#p" />
<use x="66" y="27" xlink:href="#p" />
<use x="69" y="27" xlink:href="#p" />
<use x="72" y="27" xlink:href="#p" />
<use x="75" y="27" xlink:href="#p" />
<use x="81" y="27" xlink:href="#p" />
<use x="90" y="27" xlink:href="#p" />
<use x="108" y="27" xlink:href="#p" />
<use x="12" y="30" xlink:href="#p" />
<use x="15" y="30" xlink:href="#p" />
<use x="18" y="30" xlink:href="#p" />
<use x="21" y="30" xlink:href="#p" />
<use x="24" y="30" xlink:href="#p" />
<use x="27" y="30" xlink:href="#p" />
<use x="30" y="30" xlink:href="#p" />
<use x="36" y="30" xlink:href="#p" />
<use x="42" y="30" xlink:href="#p" />
<use x="48" y="30" xlink:href="#p" />
<use x="54" y="30" xlink:href="#p" />
<use x="60" y="30" xlink:href="#p" />
<use x="66" y="30" xlink:href="#p" />
<use x="72" y="30" xlink:href="#p" />
<use x="78" y="30" xlink:href="#p" />
<use x="84" y="30" xlink:href="#p" />
<use x="90" y="30" xlink:href="#p" />
<use x="93" y="30" xlink:href="#p" />
<use x="96" y="30" xlink:href="#p" />
<use x="99" y="30" xlink:href="#p" />
<use x="102" y="30" xlink:href="#p" />
<use x="105" y="30" xlink:href="#p" />
<use x="108" y="30" xlink:href="#p" />
<use x="39" y="33" xlink:href="#p" />
<use x="48" y="33" xlink:href="#p" />
<use x="63" y="33" xlink:href="#p" />
<use x="72" y="33" xlink:href="#p" />
<use x="81" y="33" xlink:href="#p" />
<use x="84" y="33" xlink:href="#p" />
<use x="12" y="36" xlink:href="#p" />
<use x="15" y="36" xlink:href="#p" />
<use x="24" y="36" xlink:href="#p" />
<use x="27" y="36" xlink:href="#p" />
<use x="30" y="36" xlink:href="#p" />
<use x="45" y="36" xlink:href="#p" />
<use x="51" y="36" xlink:href="#p" />
<use x="54" y="36" xlink:href="#p" />
<use x="72" y="36" xlink:href="#p" />
<use x="75" y="36" xlink:href="#p" />
<use x="78" y="36" xlink:href="#p" />
<use x="93" y="36" xlink:href="#p" />
<use x="99" y="36" xlink:href="#p" />
<use x="102" y="36" xlink:href="#p" />
<use x="105" y="36" xlink:href="#p" />
<use x="108" y="36" xlink:href="#p" />
<use x="15" y="39" xlink:href="#p" />
<use x="18" y="39" xlink:href="#p" />
<use x="39" y="39" xlink:href="#p" />
<use x="42" y="39" xlink:href="#p" />
<use x="48" y="39" xlink:href="#p" />
<use x="54" y="39" xlink:href="#p" />
<use x="57" y="39" xlink:href="#p" />
<use x="60" y="39" xlink:href="#p" />
<use x="63" y="39" xlink:href="#p" />
<use x="66" y="39" xlink:href="#p" />
<use x="72" y="39" xlink:href="#p" />
<use x="75" y="39" xlink:href="#p" />
<use x="81" y="39" xlink:href="#p" />
<use x="84" y="39" xlink:href="#p" />
<use x="93" y="39" xlink:href="#p" />
<use x="102" y="39" xlink:href="#p" />
<use x="18" y="42" xlink:href="#p" />
<use x="21" y="42" xlink:href="#p" />
<use x="24" y="42" xlink:href="#p" />
<use x="30" y="42" xlink:href="#p" />
<use x="45" y="42" xlink:href="#p" />
<use x="48" y="42" xlink:href="#p" />
<use x="51" y="42" xlink:href="#p" />
<use x="54" y="42" xlink:href="#p" />
<use x="60" y="42" xlink:href="#p" />
<use x="63" y="42" xlink:href="#p" />
<use x="66" y="42" xlink:href="#p" />
<use x="81" y="42" xlink:href="#p" />
<use x="84" y="42" xlink:href="#p" />
<use x="96" y="42" xlink:href="#p" />
<use x="15" y="45" xlink:href="#p" />
<use x="18" y="45" xlink:href="#p" />
<use x="27" y="45" xlink:href="#p" />
<use x="42" y="45" xlink:href="#p" />
<use x="45" y="45" xlink:href="#p" />
<use x="51" y="45" xlink:href="#p" />
<use x="57" y="45" xlink:href="#p" />
<use x="66" y="45" xlink:href="#p" />
<use x="75" y="45" xlink:href="#p" />
<use x="78" y="45" xlink:href="#p" />
<use x="81" y="45" xlink:href="#p" />
<use x="84" y="45" xlink:href="#p" />
<use x="87" y="45" xlink:href="#p" />
<use x="96" y="45" xlink:href="#p" />
<use x="99" y="45" xlink:href="#p" />
<use x="18" y="48" xlink:href="#p" />
<use x="30" y="48" xlink:href="#p" />
<use x="33" y="48" xlink:href="#p" />
<use x="42" y="48" xlink:href="#p" />
<use x="48" y="48" xlink:href="#p" />
<use x="51" y="48" xlink:href="#p" />
<use x="57" y="48" xlink:href="#p" />
<use x="72" y="48" xlink:href="#p" />
<use x="78" y="48" xlink:href="#p" />
<use x="90" y="48" xlink:href="#p" />
<use x="96" y="48" xlink:href="#p" />
<use x="99" y="48" xlink:href="#p" />
<use x="108" y="48" xlink:href="#p" />
<use x="24" y="51" xlink:href="#p" />
<use x="27" y="51" xlink:href="#p" />
<use x="33" y="51" xlink:href="#p" />
<use x="36" y="51" xlink:href="#p" />
<use x="39" y="51" xlink:href="#p" />
<use x="51" y="51" xlink:href="#p" />
<use x="54" y="51" xlink:href="#p" />
<use x="60" y="51" xlink:href="#p" />
<use x="63" y="51" xlink:href="#p" />
<use x="66" y="51" xlink:href="#p" />
<use x="69" y="51" xlink:href="#p" />
<use x="72" y="51" xlink:href="#p" />
<use x="75" y="51" xlink:href="#p" />
<use x="81" y="51" xlink:href="#p" />
<use x="87" y="51" xlink:href="#p" />
<use x="93" y="51" xlink:href="#p" />
<use x="102" y="51" xlink:href="#p" />
<use x="105" y="51" xlink:href="#p" />
<use x="18" y="54" xlink:href="#p" />
<use x="21" y="54" xlink:href="#p" />
<use x="30" y="54" xlink:href="#p" />
<use x="33" y="54" xlink:href="#p" />
<use x="36" y="54" xlink:href="#p" />
<use x="39" y="54" xlink:href="#p" />
<use x="42" y="54" xlink:href="#p" />
<use x="63" y="54" xlink:href="#p" />
<use x="72" y="54" xlink:href="#p" />
<use x="75" y="54" xlink:href="#p" />
<use x="78" y="54" xlink:href="#p" />
<use x="84" y="54" xlink:href="#p" />
<use x="87" y="54" xlink:href="#p" />
<use x="96" y="54" xlink:href="#p" />
<use x="99" y="54" xlink:href="#p" />
<use x="12" y="57" xlink:href="#p" />
<use x="18" y="57" xlink:href="#p" />
<use x="33" y="57" xlink:href="#p" />
<use x="36" y="57" xlink:href="#p" />
<use x="48" y="57" xlink:href="#p" />
<use x="54" y="57" xlink:href="#p" />
<use x="57" y="57" xlink:href="#p" />
<use x="66" y="57" xlink:href="#p" />
<use x="69" y="57" xlink:href="#p" />
<use x="72" y="57" xlink:href="#p" />
<use x="75" y="57" xlink:href="#p" />
<use x="78" y="57" xlink:href="#p" />
<use x="90" y="57" xlink:href="#p" />
<use x="96" y="57" xlink:href="#p" />
<use x="99" y="57" xlink:href="#p" />
<use x="105" y="57" xlink:href="#p" />
<use x="12" y="60" xlink:href="#p" />
<use x="21" y="60" xlink:href="#p" />
<use x="24" y="60" xlink:href="#p" />
<use x="27" y="60" xlink:href="#p" />
<use x="30" y="60" xlink:href="#p" />
<use x="36" y="60" xlink:href="#p" />
<use x="39" y="60" xlink:href="#p" />
<use x="42" y="60" xlink:href="#p" />
<use x="45" y="60" xlink:href="#p" />
<use x="51" y="60" xlink:href="#p" />
<use x="54" y="60" xlink:href="#p" />
<use x="57" y="60" xlink:href="#p" />
<use x="66" y="60" xlink:href="#p" />
<use x="69" y="60" xlink:href="#p" />
<use x="72" y="60" xlink:href="#p" />
<use x="78" y="60" xlink:href="#p" />
<use x="81" y="60" xlink:href="#p" />
<use x="84" y="60" xlink:href="#p" />
<use x="87" y="60" xlink:href="#p" />
<use x="90" y="60" xlink:href="#p" />
<use x="93" y="60" xlink:href="#p" />
<use x="96" y="60" xlink:href="#p" />
<use x="105" y="60" xlink:href="#p" />
<use x="12" y="63" xlink:href="#p" />
<use x="15" y="63" xlink:href="#p" />
<use x="18" y="63" xlink:href="#p" />
<use x="24" y="63" xlink:href="#p" />
<use x="27" y="63" xlink:href="#p" />
<use x="42" y="63" xlink:href="#p" />
<use x="48" y="63" xlink:href="#p" />
<use x="57" y="63" xlink:href="#p" />
<use x="63" y="63" xlink:href="#p" />
<use x="66" y="63" xlink:href="#p" />
<use x="69" y="63" xlink:href="#p" />
<use x="75" y="63" xlink:href="#p" />
<use x="81" y="63" xlink:href="#p" />
<use x="99" y="63" xlink:href="#p" />
<use x="102" y="63" xlink:href="#p" />
<use x="12" y="66" xlink:href="#p" />
<use x="15" y="66" xlink:href="#p" />
<use x="18" y="66" xlink:href="#p" />
<use x="21" y="66" xlink:href="#p" />
<use x="24" y="66" xlink:href="#p" />
<use x="27" y="66" xlink:href="#p" />
<use x="30" y="66" xlink:href="#p" />
<use x="33" y="66" xlink:href="#p" />
<use x="39" y="66" xlink:href="#p" />
<use x="42" y="66" xlink:href="#p" />
<use x="45" y="66" xlink:href="#p" />
<use x="48" y="66" xlink:href="#p" />
<use x="51" y="66" xlink:href="#p" />
<use x="54" y="66" xlink:href="#p" />
<use x="57" y="66" xlink:href="#p" />
<use x="60" y="66" xlink:href="#p" />
<use x="63" y="66" xlink:href="#p" />
<use x="69" y="66" xlink:href="#p" />
<use x="78" y="66" xlink:href="#p" />
<use x="81" y="66" xlink:href="#p" />
<use x="96" y="66" xlink:href="#p" />
<use x="99" y="66" xlink:href="#p" />
<use x="105" y="66" xlink:href="#p" />
<use x="18" y="69" xlink:href="#p" />
<use x="24" y="69" xlink:href="#p" />
<use x="33" y="69" xlink:href="#p" />
<use x="39" y="69" xlink:href="#p" />
<use x="42" y="69" xlink:href="#p" />
<use x="45" y="69" xlink:href="#p" />
<use x="51" y="69" xlink:href="#p" />
<use x="60" y="69" xlink:href="#p" />
<use x="63" y="69" xlink:href="#p" />
<use x="66" y="69" xlink:href="#p" />
<use x="69" y="69" xlink:href="#p" />
<use x="75" y="69" xlink:href="#p" />
<use x="78" y="69" xlink:href="#p" />
<use x="87" y="69" xlink:href="#p" />
<use x="90" y="69" xlink:href="#p" />
<use x="93" y="69" xlink:href="#p" />
<use x="96" y="69" xlink:href="#p" />
<use x="108" y="69" xlink:href="#p" />
<use x="12" y="72" xlink:href="#p" />
<use x="15" y="72" xlink:href="#p" />
<use x="21" y="72" xlink:href="#p" />
<use x="27" y="72" xlink:href="#p" />
<use x="30" y="72" xlink:href="#p" />
<use x="33" y="72" xlink:href="#p" />
<use x="42" y="72" xlink:href="#p" />
<use x="48" y="72" xlink:href="#p" />
<use x="51" y="72" xlink:href="#p" />
<use x="57" y="72" xlink:href="#p" />
<use x="63" y="72" xlink:href="#p" />
<use x="72" y="72" xlink:href="#p" />
<use x="75" y="72" xlink:href="#p" />
<use x="78" y="72" xlink:href="#p" />
<use x="84" y="72" xlink:href="#p" />
<use x="87" y="72" xlink:href="#p" />
<use x="90" y="72" xlink:href="#p" />
<use x="93" y="72" xlink:href="#p" />
<use x="96" y="72" xlink:href="#p" />
<use x="99" y="72" xlink:href="#p" />
<use x="102" y="72" xlink:href="#p" />
<use x="105" y="72" xlink:href="#p" />
<use x="108" y="72" xlink:href="#p" />
<use x="12" y="75" xlink:href="#p" />
<use x="21" y="75" xlink:href="#p" />
<use x="24" y="75" xlink:href="#p" />
<use x="36" y="75" xlink:href="#p" />
<use x="39" y="75" xlink:href="#p" />
<use x="51" y="75" xlink:href="#p" />
<use x="54" y="75" xlink:href="#p" />
<use x="57" y="75" xlink:href="#p" />
<use x="60" y="75" xlink:href="#p" />
<use x="63" y="75" xlink:href="#p" />
<use x="66" y="75" xlink:href="#p" />
<use x="69" y="75" xlink:href="#p" />
<use x="75" y="75" xlink:href="#p" />
<use x="84" y="75" xlink:href="#p" />
<use x="93" y="75" xlink:href="#p" />
<use x="21" y="78" xlink:href="#p" />
<use x="24" y="78" xlink:href="#p" />
<use x="30" y="78" xlink:href="#p" />
<use x="33" y="78" xlink:href="#p" />
<use x="39" y="78" xlink:href="#p" />
<use x="42" y="78" xlink:href="#p" />
<use x="60" y="78" xlink:href="#p" />
<use x="69" y="78" xlink:href="#p" />
<use x="75" y="78" xlink:href="#p" />
<use x="78" y="78" xlink:href="#p" />
<use x="81" y="78" xlink:href="#p" />
<use x="84" y="78" xlink:href="#p" />
<use x="87" y="78" xlink:href="#p" />
<use x="99" y="78" xlink:href="#p" />
<use x="24" y="81" xlink:href="#p" />
<use x="33" y="81" xlink:href="#p" />
<use x="39" y="81" xlink:href="#p" />
<use x="48" y="81" xlink:href="#p" />
<use x="54" y="81" xlink:href="#p" />
<use x="57" y="81" xlink:href="#p" />
<use x="69" y="81" xlink:href="#p" />
<use x="72" y="81" xlink:href="#p" />
<use x="78" y="81" xlink:href="#p" />
<use x="90" y="81" xlink:href="#p" />
<use x="93" y="81" xlink:href="#p" />
<use x="12" y="84" xlink:href="#p" />
<use x="15" y="84" xlink:href="#p" />
<use x="24" y="84" xlink:href="#p" />
<use x="27" y="84" xlink:href="#p" />
<use x="30" y="84" xlink:href="#p" />
<use x="39" y="84" xlink:href="#p" />
<use x="42" y="84" xlink:href="#p" />
<use x="45" y="84" xlink:href="#p" />
<use x="51" y="84" xlink:href="#p" />
<use x="54" y="84" xlink:href="#p" />
<use x="57" y="84" xlink:href="#p" />
<use x="69" y="84" xlink:href="#p" />
<use x="72" y="84" xlink:href="#p" />
<use x="75" y="84" xlink:href="#p" />
<use x="78" y="84" xlink:href="#p" />
<use x="81" y="84" xlink:href="#p" />
<use x="84" y="84" xlink:href="#p" />
<use x="87" y="84" xlink:href="#p" />
<use x="90" y="84" xlink:href="#p" />
<use x="93" y="84" xlink:href="#p" />
<use x="96" y="84" xlink:href="#p" />
<use x="99" y="84" xlink:href="#p" />
<use x="108" y="84" xlink:href="#p" />
<use x="36" y="87" xlink:href="#p" />
<use x="48" y="87" xlink:href="#p" />
<use x="60" y="87" xlink:href="#p" />
<use x="63" y="87" xlink:href="#p" />
<use x="66" y="87" xlink:href="#p" />
<use x="72" y="87" xlink:href="#p" />
<use x="84" y="87" xlink:href="#p" />
<use x="96" y="87" xlink:href="#p" />
<use x="102" y="87" xlink:href="#p" />
<use x="105" y="87" xlink:href="#p" />
<use x="12" y="90" xlink:href="#p" />
<use x="15" y="90" xlink:href="#p" />
<use x="18" y="90" xlink:href="#p" />
<use x="21" y="90" xlink:href="#p" />
<use x="24" y="90" xlink:href="#p" />
<use x="27" y="90" xlink:href="#p" />
<use x="30" y="90" xlink:href="#p" />
<use x="39" y="90" xlink:href="#p" />
<use x="42" y="90" xlink:href="#p" />
<use x="45" y="90" xlink:href="#p" />
<use x="48" y="90" xlink:href="#p" />
<use x="51" y="90" xlink:href="#p" />
<use x="54" y="90" xlink:href="#p" />
<use x="57" y="90" xlink:href="#p" />
<use x="63" y="90" xlink:href="#p" />
<use x="69" y="90" xlink:href="#p" />
<use x="72" y="90" xlink:href="#p" />
<use x="81" y="90" xlink:href="#p" />
<use x="84" y="90" xlink:href="#p" />
<use x="90" y="90" xlink:href="#p" />
<use x="96" y="90" xlink:href="#p" />
<use x="99" y="90" xlink:href="#p" />
<use x="102" y="90" xlink:href="#p" />
<use x="12" y="93" xlink:href="#p" />
<use x="30" y="93" xlink:href="#p" />
<use x="36" y="93" xlink:href="#p" />
<use x="42" y="93" xlink:href="#p" />
<use x="45" y="93" xlink:href="#p" />
<use x="51" y="93" xlink:href="#p" />
<use x="57" y="93" xlink:href="#p" />
<use x="63" y="93" xlink:href="#p" />
<use x="66" y="93" xlink:href="#p" />
<use x="72" y="93" xlink:href="#p" />
<use x="78" y="93" xlink:href="#p" />
<use x="84" y="93" xlink:href="#p" />
<use x="96" y="93" xlink:href="#p" />
<use x="12" y="96" xlink:href="#p" />
<use x="18" y="96" xlink:href="#p" />
<use x="21" y="96" xlink:href="#p" />
<use x="24" y="96" xlink:href="#p" />
<use x="30" y="96" xlink:href="#p" />
<use x="36" y="96" xlink:href="#p" />
<use x="39" y="96" xlink:href="#p" />
<use x="48" y="96" xlink:href="#p" />
<use x="51" y="96" xlink:href="#p" />
<use x="57" y="96" xlink:href="#p" />
<use x="63" y="96" xlink:href="#p" />
<use x="66" y="96" xlink:href="#p" />
<use x="72" y="96" xlink:href="#p" />
<use x="75" y="96" xlink:href="#p" />
<use x="84" y="96" xlink:href="#p" />
<use x="87" y="96" xlink:href="#p" />
<use x="90" y="96" xlink:href="#p" />
<use x="93" y="96" xlink:href="#p" />
<use x="96" y="96" xlink:href="#p" />
<use x="99" y="96" xlink:href="#p" />
<use x="102" y="96" xlink:href="#p" />
<use x="108" y="96" xlink:href="#p" />
<use x="12" y="99" xlink:href="#p" />
<use x="18" y="99" xlink:href="#p" />
<use x="21" y="99" xlink:href="#p" />
<use x="24" y="99" xlink:href="#p" />
<use x="30" y="99" xlink:href="#p" />
<use x="39" y="99" xlink:href="#p" />
<use x="51" y="99" xlink:href="#p" />
<use x="54" y="99" xlink:href="#p" />
<use x="63" y="99" xlink:href="#p" />
<use x="66" y="99" xlink:href="#p" />
<use x="75" y="99" xlink:href="#p" />
<use x="84" y="99" xlink:href="#p" />
<use x="90" y="99" xlink:href="#p" />
<use x="102" y="99" xlink:href="#p" />
<use x="108" y="99" xlink:href="#p" />
<use x="12" y="102" xlink:href="#p" />
<use x="18" y="102" xlink:href="#p" />
<use x="21" y="102" xlink:href="#p" />
<use x="24" y="102" xlink:href="#p" />
<use x="30" y="102" xlink:href="#p" />
<use x="39" y="102" xlink:href="#p" />
<use x="42" y="102" xlink:href="#p" />
<use x="57" y="102" xlink:href="#p" />
<use x="66" y="102" xlink:href="#p" />
<use x="81" y="102" xlink:href="#p" />
<use x="90" y="102" xlink:href="#p" />
<use x="96" y="102" xlink:href="#p" />
<use x="99" y="102" xlink:href="#p" />
<use x="102" y="102" xlink:href="#p" />
<use x="12" y="105" xlink:href="#p" />
<use x="30" y="105" xlink:href="#p" />
<use x="36" y="105" xlink:href="#p" />
<use x="39" y="105" xlink:href="#p" />
<use x="48" y="105" xlink:href="#p" />
<use x="54" y="105" xlink:href="#p" />
<use x="57" y="105" xlink:href="#p" />
<use x="60" y="105" xlink:href="#p" />
<use x="69" y="105" xlink:href="#p" />
<use x="72" y="105" xlink:href="#p" />
<use x="78" y="105" xlink:href="#p" />
<use x="81" y="105" xlink:href="#p" />
<use x="84" y="105" xlink:href="#p" />
<use x="90" y="105" xlink:href="#p" />
<use x="93" y="105" xlink:href="#p" />
<use x="12" y="108" xlink:href="#p" />
<use x="15" y="108" xlink:href="#p" />
<use x="18" y="108" xlink:href="#p" />
<use x="21" y="108" xlink:href="#p" />
<use x="24" y="108" xlink:href="#p" />
<use x="27" y="108" xlink:href="#p" />
<use x="30" y="108" xlink:href="#p" />
<use x="36" y="108" xlink:href="#p" />
<use x="39" y="108" xlink:href="#p" />
<use x="45" y="108" xlink:href="#p" />
<use x="51" y="108" xlink:href="#p" />
<use x="54" y="108" xlink:href="#p" />
<use x="57" y="108" xlink:href="#p" />
<use x="69" y="108" xlink:href="#p" />
<use x="72" y="108" xlink:href="#p" />
<use x="75" y="108" xlink:href="#p" />
<use x="84" y="108" xlink:href="#p" />
<use x="87" y="108" xlink:href="#p" />
<use x="96" y="108" xlink:href="#p" />
<use x="99" y="108" xlink:href="#p" />
<use x="108" y="108" xlink:href="#p" />
</g>
</svg>