<?xml version="1.0" encoding="utf-8"?>
<!DOCTYPE svg PUBLIC "-//W3C//DTD SVG 1.0//EN" "http://www.w3.org/TR/2001/REC-SVG-20010904/DTD/svg10.dtd">
<svg xmlns="http://www.w3.org/2000/svg" xml:space="preserve" xmlns:xlink="http://www.w3.org/1999/xlink" width="123" height="123" viewBox="0 0 123 123">
<desc></desc>
<rect width="123" height="123" fill="#ffffff" cx="0" cy="0" />
<defs>
<rect id="p" width="3" height="3" />
</defs>
<g fill="#000000">
<use x="12" y="12" xlink:href="#p" />
<use x="15" y="12" xlink:href="#p" />
<use x="18" y="12" xlink:href="#p" />
<use x="21" y="12" xlink:href="#p" />
<use x="24" y="12" xlink:href="#p" />
<use x="27" y="12" xlink:href="#p" />
<use x="30" y="12" xlink:href="#p" />
<use x="39" y="12" xlink:href="#p" />
<use x="54" y="12" xlink:href="#p" />
<use x="57" y="12" xlink:href="#p" />
<use x="60" y="12" xlink:href="#p" />
<use x="63" y="12" xlink:href="#p" />
<use x="66" y="12" xlink:href="#p" />
<use x="81" y="12" xlink:href="#p" />
<use x="90" y="12" xlink:href="#p" />
<use x="93" y="12" xlink:href="#p" />
<use x="96" y="12" xlink:href="#p" />
<use x="99" y="12" xlink:href="#p" />
<use x="102" y="12" xlink:href="#p" />
<use x="105" y="12" xlink:href="#p" />
<use x="108" y="12" xlink:href="#p" />
<use x="12" y="15" xlink:href="#p" />
<use x="30" y="15" xlink:href="#p" />
<use x="36" y="15" xlink:href="#p" />
<use x="39" y="15" xlink:href="#p" />
<use x="45" y="15" xlink:href="#p" />
<use x="48" y="15" xlink:href="#p" />
<use x="51" y="15" xlink:href="#p" />
<use x="54" y="15" xlink:href="#p" />
<use x="57" y="15" xlink:href="#p" />
<use x="60" y="15" xlink:href="#p" />
<use x="66" y="15" xlink:href="#p" />
<use x="72" y="15" xlink:href="#p" />
<use x="78" y="15" xlink:href="#p" />
<use x="90" y="15" xlink:href="#p" />
<use x="108" y="15" xlink:href="#p" />
<use x="12" y="18" xlink:href="#p" />
<use x="18" y="18" xlink:href="#p" />
<use x="21" y="18" xlink:href="#p" />
<use x="24" y="18" xlink:href="#p" />
<use x="30" y="18" xlink:href="#p" />
<use x="39" y="18" xlink:href="#p" />
<use x="42" y="18" xlink:href="#p" />
<use x="45" y="18" xlink:href="#p" />
<use x="57" y="18" xlink:href="#p" />
<use x="63" y="18" xlink:href="#p" />
<use x="69" y="18" xlink:href="#p" />
<use x="72" y="18" xlink:href="#p" />
<use x="75" y="18" xlink:href="#p" />
<use x="78" y="18" xlink:href="#p" />
<use x="84" y="18" xlink:href="#p" />
<use x="90" y="18" xlink:href="#p" />
<use x="96" y="18" xlink:href="#p" />
<use x="99" y="18" xlink:href="#p" />
<use x="102" y="18" xlink:href="#p" />
<use x="108" y="18" xlink:href="#p" />
<use x="12" y="21" xlink:href="#p" />
<use x="18" y="21" xlink:href="#p" />
<use x="21" y="21" xlink:href="#p" />
<use x="24" y="21" xlink:href="#p" />
<use x="30" y="21" xlink:href="#p" />
<use x="36" y="21" xlink:href="#p" />
<use x="39" y="21" xlink:href="#p" />
<use x="45" y="21" xlink:href="#p" />
<use x="51" y="21" xlink:href="#p" />
<use x="54" y="21" xlink:href="#p" />
<use x="57" y="21" xlink:href="#p" />
<use x="60" y="21" xlink:href="#p" />
<use x="63" y="21" xlink:href="#p" />
<use x="66" y="21" xlink:href="#p" />
<use x="69" y="21" xlink:href="#p" />
<use x="75" y="21" xlink:href="#p" />
<use x="78" y="21" xlink:href="#p" />
<use x="81" y="21" xlink:href="#p" />
<use x="90" y="21" xlink:href="#p" />
<use x="96" y="21" xlink:href="#p" />
<use x="99" y="21" xlink:href="#p" />
<use x="102" y="21" xlink:href="#p" />
<use x="108" y="21" xlink:href="#p" />
<use x="12" y="24" xlink:href="#p" />
<use x="18" y="24" xlink:href="#p" />
<use x="21" y="24" xlink:href="#p" />
<use x="24" y="24" xlink:href="#p" />
<use x="30" y="24" xlink:href="#p" />
<use x="42" y="24" xlink:href="#p" />
<use x="48" y="24" xlink:href="#p" />
<use x="54" y="24" xlink:href="#p" />
<use x="57" y="24" xlink:href="#p" />
<use x="69" y="24" xlink:href="#p" />
<use x="75" y="24" xlink:href="#p" />
<use x="81" y="24" xlink:href="#p" />
<use x="90" y="24" xlink:href="#p" />
<use x="96" y="24" xlink:href="#p" />
<use x="99" y="24" xlink:href="#p" />
<use x="102" y="24" xlink:href="#p" />
<use x="108" y="24" xlink:href="#p" />
<use x="12" y="27" xlink:href="#p" />
<use x="30" y="27" xlink:href="#p" />
<use x="36" y="27" xlink:href="#p" />
<use x="42" y="27" xlink:href="#p" />
<use x="69" y="27" xlink:href="#p" />
<use x="72" y="27" xlink:href="#p" />
<use x="75" y="27" xlink:href="#p" />
<use x="78" y="27" xlink:href="#p" />
<use x="90" y="27" xlink:href="#p" />
<use x="108" y="27" xlink:href="#p" />
<use x="12" y="30" xlink:href="#p" />
<use x="15" y="30" xlink:href="#p" />
<use x="18" y="30" xlink:href="#p" />
<use x="21" y="30" xlink:href="#p" />
<use x="24" y="30" xlink:href="#p" />
<use x="27" y="30" xlink:href="#p" />
<use x="30" y="30" xlink:href="#p" />
<use x="36" y="30" xlink:href="#p" />
<use x="42" y="30" xlink:href="#p" />
<use x="48" y="30" xlink:href="#p" />
<use x="54" y="30" xlink:href="#p" />
<use x="60" y="30" xlink:href="#p" />
<use x="66" y="30" xlink:href="#p" />
<use x="72" y="30" xlink:href="#p" />
<use x="78" y="30" xlink:href="#p" />
<use x="84" y="30" xlink:href="#p" />
<use x="90" y="30" xlink:href="#p" />
<use x="93" y="30" xlink:href="#p" />
<use x="96" y="30" xlink:href="#p" />
<use x="99" y="30" xlink:href="#p" />
<use x="102" y="30" xlink:href="#p" />
<use x="105" y="30" xlink:href="#p" />
<use x="108" y="30" xlink:href="#p" />
<use x="48" y="33" xlink:href="#p" />
<use x="51" y="33" xlink:href="#p" />
<use x="54" y="33" xlink:href="#p" />
<use x="66" y="33" xlink:href="#p" />
<use x="69" y="33" xlink:href="#p" />
<use x="75" y="33" xlink:href="#p" />
<use x="78" y="33" xlink:href="#p" />
<use x="12" y="36" xlink:href="#p" />
<use x="15" y="36" xlink:href="#p" />
<use x="18" y="36" xlink:href="#p" />
<use x="21" y="36" xlink:href="#p" />
<use x="24" y="36" xlink:href="#p" />
<use x="30" y="36" xlink:href="#p" />
<use x="33" y="36" xlink:href="#p" />
<use x="36" y="36" xlink:href="#p" />
<use x="39" y="36" xlink:href="#p" />
<use x="42" y="36" xlink:href="#p" />
<use x="48" y="36" xlink:href="#p" />
<use x="57" y="36" xlink:href="#p" />
<use x="60" y="36" xlink:href="#p" />
<use x="66" y="36" xlink:href="#p" />
<use x="69" y="36" xlink:href="#p" />
<use x="72" y="36" xlink:href="#p" />
<use x="84" y="36" xlink:href="#p" />
<use x="87" y="36" xlink:href="#p" />
<use x="93" y="36" xlink:href="#p" />
<use x="99" y="36" xlink:href="#p" />
<use x="105" y="36" xlink:href="#p" />
<use x="12" y="39" xlink:href="#p" />
<use x="21" y="39" xlink:href="#p" />
<use x="36" y="39" xlink:href="#p" />
<use x="39" y="39" xlink:href="#p" />
<use x="51" y="39" xlink:href="#p" />
<use x="54" y="39" xlink:href="#p" />
<use x="63" y="39" xlink:href="#p" />
<use x="66" y="39" xlink:href="#p" />
<use x="69" y="39" xlink:href="#p" />
<use x="81" y="39" xlink:href="#p" />
<use x="87" y="39" xlink:href="#p" />
<use x="90" y="39" xlink:href="#p" />
<use x="93" y="39" xlink:href="#p" />
<use x="99" y="39" xlink:href="#p" />
<use x="105" y="39" xlink:href="#p" />
<use x="108" y="39" xlink:href="#p" />
<use x="12" y="42" xlink:href="#p" />
<use x="15" y="42" xlink:href="#p" />
<use x="24" y="42" xlink:href="#p" />
<use x="27" y="42" xlink:href="#p" />
<use x="30" y="42" xlink:href="#p" />
<use x="33" y="42" xlink:href="#p" />
<use x="39" y="42" xlink:href="#p" />
<use x="45" y="42" xlink:href="#p" />
<use x="48" y="42" xlink:href="#p" />
<use x="54" y="42" xlink:href="#p" />
<use x="57" y="42" xlink:href="#p" />
<use x="63" y="42" xlink:href="#p" />
<use x="66" y="42" xlink:href="#p" />
<use x="72" y="42" xlink:href="#p" />
<use x="78" y="42" xlink:href="#p" />
<use x="84" y="42" xlink:href="#p" />
<use x="93" y="42" xlink:href="#p" />
<use x="18" y="45" xlink:href="#p" />
<use x="21" y="45" xlink:href="#p" />
<use x="24" y="45" xlink:href="#p" />
<use x="27" y="45" xlink:href="#p" />
<use x="39" y="45" xlink:href="#p" />
<use x="42" y="45" xlink:href="#p" />
<use x="45" y="45" xlink:href="#p" />
<use x="57" y="45" xlink:href="#p" />
<use x="66" y="45" xlink:href="#p" />
<use x="69" y="45" xlink:href="#p" />
<use x="72" y="45" xlink:href="#p" />
<use x="75" y="45" xlink:href="#p" />
<use x="81" y="45" xlink:href="#p" />
<use x="87" y="45" xlink:href="#p" />
<use x="12" y="48" xlink:href="#p" />
<use x="15" y="48" xlink:href="#p" />
<use x="18" y="48" xlink:href="#p" />
<use x="21" y="48" xlink:href="#p" />
<use x="24" y="48" xlink:href="#p" />
<use x="30" y="48" xlink:href="#p" />
<use x="36" y="48" xlink:href="#p" />
<use x="39" y="48" xlink:href="#p" />
<use x="45" y="48" xlink:href="#p" />
<use x="57" y="48" xlink:href="#p" />
<use x="63" y="48" xlink:href="#p" />
<use x="72" y="48" xlink:href="#p" />
<use x="75" y="48" xlink:href="#p" />
<use x="78" y="48" xlink:href="#p" />
<use x="87" y="48" xlink:href="#p" />
<use x="96" y="48" xlink:href="#p" />
<use x="102" y="48" xlink:href="#p" />
<use x="12" y="51" xlink:href="#p" />
<use x="15" y="51" xlink:href="#p" />
<use x="18" y="51" xlink:href="#p" />
<use x="27" y="51" xlink:href="#p" />
<use x="33" y="51" xlink:href="#p" />
<use x="39" y="51" xlink:href="#p" />
<use x="42" y="51" xlink:href="#p" />
<use x="48" y="51" xlink:href="#p" />
<use x="51" y="51" xlink:href="#p" />
<use x="63" y="51" xlink:href="#p" />
<use x="66" y="51" xlink:href="#p" />
<use x="69" y="51" xlink:href="#p" />
<use x="72" y="51" xlink:href="#p" />
<use x="81" y="51" xlink:href="#p" />
<use x="87" y="51" xlink:href="#p" />
<use x="90" y="51" xlink:href="#p" />
<use x="102" y="51" xlink:href="#p" />
<use x="108" y="51" xlink:href="#p" />
<use x="12" y="54" xlink:href="#p" />
<use x="15" y="54" xlink:href="#p" />
<use x="18" y="54" xlink:href="#p" />
<use x="21" y="54" xlink:href="#p" />
<use x="24" y="54" xlink:href="#p" />
<use x="30" y="54" xlink:href="#p" />
<use x="42" y="54" xlink:href="#p" />
<use x="51" y="54" xlink:href="#p" />
<use x="54" y="54" xlink:href="#p" />
<use x="57" y="54" xlink:href="#p" />
<use x="60" y="54" xlink:href="#p" />
<use x="63" y="54" xlink:href="#p" />
<use x="66" y="54" xlink:href="#p" />
<use x="69" y="54" xlink:href="#p" />
<use x="72" y="54" xlink:href="#p" />
<use x="75" y="54" xlink:href="#p" />
<use x="78" y="54" xlink:href="#p" />
<use x="87" y="54" xlink:href="#p" />
<use x="96" y="54" xlink:href="#p" />
<use x="12" y="57" xlink:href="#p" />
<use x="24" y="57" xlink:href="#p" />
<use x="39" y="57" xlink:href="#p" />
<use x="42" y="57" xlink:href="#p" />
<use x="48" y="57" xlink:href="#p" />
<use x="51" y="57" xlink:href="#p" />
<use x="66" y="57" xlink:href="#p" />
<use x="69" y="57" xlink:href="#p" />
<use x="75" y="57" xlink:href="#p" />
<use x="78" y="57" xlink:href="#p" />
<use x="84" y="57" xlink:href="#p" />
<use x="87" y="57" xlink:href="#p" />
<use x="93" y="57" xlink:href="#p" />
<use x="102" y="57" xlink:href="#p" />
<use x="105" y="57" xlink:href="#p" />
<use x="12" y="60" xlink:href="#p" />
<use x="18" y="60" xlink:href="#p" />
<use x="21" y="60" xlink:href="#p" />
<use x="27" y="60" xlink:href="#p" />
<use x="30" y="60" xlink:href="#p" />
<use x="33" y="60" xlink:href="#p" />
<use x="39" y="60" xlink:href="#p" />
<use x="42" y="60" xlink:href="#p" />
<use x="48" y="60" xlink:href="#p" />
<use x="54" y="60" xlink:href="#p" />
<use x="57" y="60" xlink:href="#p" />
<use x="69" y="60" xlink:href="#p" />
<use x="72" y="60" xlink:href="#p" />
<use x="78" y="60" xlink:href="#p" />
<use x="87" y="60" xlink:href="#p" />
<use x="96" y="60" xlink:href="#p" />
<use x="102" y="60" xlink:href="#p" />
<use x="108" y="60" xlink:href="#p" />
<use x="21" y="63" xlink:href="#p" />
<use x="27" y="63" xlink:href="#p" />
<use x="33" y="63" xlink:href="#p" />
<use x="36" y="63" xlink:href="#p" />
<use x="60" y="63" xlink:href="#p" />
<use x="66" y="63" xlink:href="#p" />
<use x="69" y="63" xlink:href="#p" />
<use x="81" y="63" xlink:href="#p" />
<use x="87" y="63" xlink:href="#p" />
<use x="90" y="63" xlink:href="#p" />
<use x="99" y="63" xlink:href="#p" />
<use x="102" y="63" xlink:href="#p" />
<use x="105" y="63" xlink:href="#p" />
<use x="108" y="63" xlink:href="#p" />
<use x="15" y="66" xlink:href="#p" />
<use x="21" y="66" xlink:href="#p" />
<use x="27" y="66" xlink:href="#p" />
<use x="30" y="66" xlink:href="#p" />
<use x="33" y="66" xlink:href="#p" />
<use x="39" y="66" xlink:href="#p" />
<use x="42" y="66" xlink:href="#p" />
<use x="45" y="66" xlink:href="#p" />
<use x="48" y="66" xlink:href="#p" />
<use x="57" y="66" xlink:href="#p" />
<use x="63" y="66" xlink:href="#p" />
<use x="66" y="66" xlink:href="#p" />
<use x="75" y="66" xlink:href="#p" />
<use x="78" y="66" xlink:href="#p" />
<use x="84" y="66" xlink:href="#p" />
<use x="90" y="66" xlink:href="#p" />
<use x="93" y="66" xlink:href="#p" />
<use x="96" y="66" xlink:href="#p" />
<use x="102" y="66" xlink:href="#p" />
<use x="105" y="66" xlink:href="#p" />
<use x="15" y="69" xlink:href="#p" />
<use x="45" y="69" xlink:href="#p" />
<use x="54" y="69" xlink:href="#p" />
<use x="75" y="69" xlink:href="#p" />
<use x="81" y="69" xlink:href="#p" />
<use x="84" y="69" xlink:href="#p" />
<use x="108" y="69" xlink:href="#p" />
<use x="27" y="72" xlink:href="#p" />
<use x="30" y="72" xlink:href="#p" />
<use x="42" y="72" xlink:href="#p" />
<use x="45" y="72" xlink:href="#p" />
<use x="60" y="72" xlink:href="#p" />
<use x="75" y="72" xlink:href="#p" />
<use x="78" y="72" xlink:href="#p" />
<use x="81" y="72" xlink:href="#p" />
<use x="84" y="72" xlink:href="#p" />
<use x="87" y="72" xlink:href="#p" />
<use x="96" y="72" xlink:href="#p" />
<use x="99" y="72" xlink:href="#p" />
<use x="12" y="75" xlink:href="#p" />
<use x="18" y="75" xlink:href="#p" />
<use x="24" y="75" xlink:href="#p" />
<use x="36" y="75" xlink:href="#p" />
<use x="42" y="75" xlink:href="#p" />
<use x="48" y="75" xlink:href="#p" />
<use x="51" y="75" xlink:href="#p" />
<use x="54" y="75" xlink:href="#p" />
<use x="60" y="75" xlink:href="#p" />
<use x="69" y="75" xlink:href="#p" />
<use x="78" y="75" xlink:href="#p" />
<use x="81" y="75" xlink:href="#p" />
<use x="90" y="75" xlink:href="#p" />
<use x="99" y="75" xlink:href="#p" />
<use x="105" y="75" xlink:href="#p" />
<use x="108" y="75" xlink:href="#p" />
<use x="12" y="78" xlink:href="#p" />
<use x="18" y="78" xlink:href="#p" />
<use x="21" y="78" xlink:href="#p" />
<use x="24" y="78" xlink:href="#p" />
<use x="30" y="78" xlink:href="#p" />
<use x="33" y="78" xlink:href="#p" />
<use x="42" y="78" xlink:href="#p" />
<use x="51" y="78" xlink:href="#p" />
<use x="54" y="78" xlink:href="#p" />
<use x="57" y="78" xlink:href="#p" />
<use x="63" y="78" xlink:href="#p" />
<use x="66" y="78" xlink:href="#p" />
<use x="87" y="78" xlink:href="#p" />
<use x="96" y="78" xlink:href="#p" />
<use x="12" y="81" xlink:href="#p" />
<use x="21" y="81" xlink:href="#p" />
<use x="24" y="81" xlink:href="#p" />
<use x="27" y="81" xlink:href="#p" />
<use x="33" y="81" xlink:href="#p" />
<use x="36" y="81" xlink:href="#p" />
<use x="42" y="81" xlink:href="#p" />
<use x="48" y="81" xlink:href="#p" />
<use x="51" y="81" xlink:href="#p" />
<use x="60" y="81" xlink:href="#p" />
<use x="69" y="81" xlink:href="#p" />
<use x="75" y="81" xlink:href="#p" />
<use x="81" y="81" xlink:href="#p" />
<use x="93" y="81" xlink:href="#p" />
<use x="102" y="81" xlink:href="#p" />
<use x="12" y="84" xlink:href="#p" />
<use x="27" y="84" xlink:href="#p" />
<use x="30" y="84" xlink:href="#p" />
<use x="36" y="84" xlink:href="#p" />
<use x="39" y="84" xlink:href="#p" />
<use x="48" y="84" xlink:href="#p" />
<use x="54" y="84" xlink:href="#p" />
<use x="57" y="84" xlink:href="#p" />
<use x="60" y="84" xlink:href="#p" />
<use x="63" y="84" xlink:href="#p" />
<use x="66" y="84" xlink:href="#p" />
<use x="69" y="84" xlink:href="#p" />
<use x="75" y="84" xlink:href="#p" />
<use x="78" y="84" xlink:href="#p" />
<use x="81" y="84" xlink:href="#p" />
<use x="84" y="84" xlink:href="#p" />
<use x="87" y="84" xlink:href="#p" />
<use x="90" y="84" xlink:href="#p" />
<use x="93" y="84" xlink:href="#p" />
<use x="96" y="84" xlink:href="#p" />
<use x="99" y="84" xlink:href="#p" />
<use x="105" y="84" xlink:href="#p" />
<use x="36" y="87" xlink:href="#p" />
<use x="42" y="87" xlink:href="#p" />
<use x="60" y="87" xlink:href="#p" />
<use x="69" y="87" xlink:href="#p" />
<use x="72" y="87" xlink:href="#p" />
<use x="78" y="87" xlink:href="#p" />
<use x="84" y="87" xlink:href="#p" />
<use x="96" y="87" xlink:href="#p" />
<use x="99" y="87" xlink:href="#p" />
<use x="102" y="87" xlink:href="#p" />
<use x="108" y="87" xlink:href="#p" />
<use x="12" y="90" xlink:href="#p" />
<use x="15" y="90" xlink:href="#p" />
<use x="18" y="90" xlink:href="#p" />
<use x="21" y="90" xlink:href="#p" />
<use x="24" y="90" xlink:href="#p" />
<use x="27" y="90" xlink:href="#p" />
<use x="30" y="90" xlink:href="#p" />
<use x="36" y="90" xlink:href="#p" />
<use x="39" y="90" xlink:href="#p" />
<use x="45" y="90" xlink:href="#p" />
<use x="48" y="90" xlink:href="#p" />
<use x="57" y="90" xlink:href="#p" />
<use x="72" y="90" xlink:href="#p" />
<use x="84" y="90" xlink:href="#p" />
<use x="90" y="90" xlink:href="#p" />
<use x="96" y="90" xlink:href="#p" />
<use x="99" y="90" xlink:href="#p" />
<use x="102" y="90" xlink:href="#p" />
<use x="12" y="93" xlink:href="#p" />
<use x="30" y="93" xlink:href="#p" />
<use x="39" y="93" xlink:href="#p" />
<use x="45" y="93" xlink:href="#p" />
<use x="54" y="93" xlink:href="#p" />
<use x="57" y="93" xlink:href="#p" />
<use x="60" y="93" xlink:href="#p" />
<use x="69" y="93" xlink:href="#p" />
<use x="75" y="93" xlink:href="#p" />
<use x="81" y="93" xlink:href="#p" />
<use x="84" y="93" xlink:href="#p" />
<use x="96" y="93" xlink:href="#p" />
<use x="99" y="93" xlink:href="#p" />
<use x="105" y="93" xlink:href="#p" />
<use x="108" y="93" xlink:href="#p" />
<use x="12" y="96" xlink:href="#p" />
<use x="18" y="96" xlink:href="#p" />
<use x="21" y="96" xlink:href="#p" />
<use x="24" y="96" xlink:href="#p" />
<use x="30" y="96" xlink:href="#p" />
<use x="36" y="96" xlink:href="#p" />
<use x="45" y="96" xlink:href="#p" />
<use x="63" y="96" xlink:href="#p" />
<use x="66" y="96" xlink:href="#p" />
<use x="72" y="96" xlink:href="#p" />
<use x="84" y="96" xlink:href="#p" />
<use x="87" y="96" xlink:href="#p" />
<use x="90" y="96" xlink:href="#p" />
<use x="93" y="96" xlink:href="#p" />
<use x="96" y="96" xlink:href="#p" />
<use x="12" y="99" xlink:href="#p" />
<use x="18" y="99" xlink:href="#p" />
<use x="21" y="99" xlink:href="#p" />
<use x="24" y="99" xlink:href="#p" />
<use x="30" y="99" xlink:href="#p" />
<use x="36" y="99" xlink:href="#p" />
<use x="39" y="99" xlink:href="#p" />
<use x="48" y="99" xlink:href="#p" />
<use x="51" y="99" xlink:href="#p" />
<use x="54" y="99" xlink:href="#p" />
<use x="60" y="99" xlink:href="#p" />
<use x="72" y="99" xlink:href="#p" />
<use x="78" y="99" xlink:href="#p" />
<use x="81" y="99" xlink:href="#p" />
<use x="84" y="99" xlink:href="#p" />
<use x="87" y="99" xlink:href="#p" />
<use x="96" y="99" xlink:href="#p" />
<use x="99" y="99" xlink:href="#p" />
<use x="102" y="99" xlink:href="#p" />
<use x="12" y="102" xlink:href="#p" />
<use x="18" y="102" xlink:href="#p" />
<use x="21" y="102" xlink:href="#p" />
<use x="24" y="102" xlink:href="#p" />
<use x="30" y="102" xlink:href="#p" />
<use x="36" y="102" xlink:href="#p" />
<use x="42" y="102" xlink:href="#p" />
<use x="51" y="102" xlink:href="#p" />
<use x="54" y="102" xlink:href="#p" />
<use x="57" y="102" xlink:href="#p" />
<use x="60" y="102" xlink:href="#p" />
<use x="72" y="102" xlink:href="#p" />
<use x="75" y="102" xlink:href="#p" />
<use x="81" y="102" xlink:href="#p" />
<use x="84" y="102" xlink:href="#p" />
<use x="87" y="102" xlink:href="#p" />
<use x="102" y="102" xlink:href="#p" />
<use x="12" y="105" xlink:href="#p" />
<use x="30" y="105" xlink:href="#p" />
<use x="36" y="105" xlink:href="#p" />
<use x="39" y="105" xlink:href="#p" />
<use x="42" y="105" xlink:href="#p" />
<use x="48" y="105" xlink:href="#p" />
<use x="51" y="105" xlink:href="#p" />
<use x="57" y="105" xlink:href="#p" />
<use x="60" y="105" xlink:href="#p" />
<use x="69" y="105" xlink:href="#p" />
<use x="72" y="105" xlink:href="#p" />
<use x="75" y="105" xlink:href="#p" />
<use x="84" y="105" xlink:href="#p" />
<use x="87" y="105" xlink:href="#p" />
<use x="96" y="105" xlink:href="#p" />
<use x="102" y="105" xlink:href="#p" />
<use x="12" y="108" xlink:href="#p" />
<use x="15" y="108" xlink:href="#p" />
<use x="18" y="108" xlink:href="#p" />
<use x="21" y="108" xlink:href="#p" />
<use x="24" y="108" xlink:href="#p" />
<use x="27" y="108" xlink:href="#p" />
<use x="30" y="108" xlink:href="#p" />
<use x="36" y="108" xlink:href="#p" />
<use x="48" y="108" xlink:href="#p" />
<use x="54" y="108" xlink:href="#p" />
<use x="63" y="108" xlink:href="#p" />
<use x="75" y="108" xlink:href="#p" />
<use x="78" y="108" xlink:href="#p" />
<use x="81" y="108" xlink:href="#p" />
<use x="84" y="108" xlink:href="#p" />
<use x="90" y="108" xlink:href="#p" />
<use x="93" y="108" xlink:href="#p" />
<use x="96" y="108" xlink:href="#p" />
<use x="99" y="108" xlink:href="#p" />
<use x="102" y="108" xlink:href="#p" />
<use x="105" y="108" xlink:href="#p" />
</g>
</svg>