<?xml version="1.0" encoding="utf-8"?>
<!DOCTYPE svg PUBLIC "-//W3C//DTD SVG 1.0//EN" "http://www.w3.org/TR/2001/REC-SVG-20010904/DTD/svg10.dtd">
<svg xmlns="http://www.w3.org/2000/svg" xml:space="preserve" xmlns:xlink="http://www.w3.org/1999/xlink" width="175" height="175" viewBox="0 0 175 175">
<desc></desc>
<rect width="175" height="175" fill="#ffffff" cx="0" cy="0" />
<defs>
<rect id="p" width="5" height="5" />
</defs>
<g fill="#000000">
<use x="25" y="25" xlink:href="#p" />
<use x="30" y="25" xlink:href="#p" />
<use x="35" y="25" xlink:href="#p" />
<use x="40" y="25" xlink:href="#p" />
<use x="45" y="25" xlink:href="#p" />
<use x="50" y="25" xlink:href="#p" />
<use x="55" y="25" xlink:href="#p" />
<use x="70" y="25" xlink:href="#p" />
<use x="75" y="25" xlink:href="#p" />
<use x="80" y="25" xlink:href="#p" />
<use x="85" y="25" xlink:href="#p" />
<use x="90" y="25" xlink:href="#p" />
<use x="100" y="25" xlink:href="#p" />
<use x="115" y="25" xlink:href="#p" />
<use x="120" y="25" xlink:href="#p" />
<use x="125" y="25" xlink:href="#p" />
<use x="130" y="25" xlink:href="#p" />
<use x="135" y="25" xlink:href="#p" />
<use x="140" y="25" xlink:href="#p" />
<use x="145" y="25" xlink:href="#p" />
<use x="25" y="30" xlink:href="#p" />
<use x="55" y="30" xlink:href="#p" />
<use x="65" y="30" xlink:href="#p" />
<use x="70" y="30" xlink:href="#p" />
<use x="80" y="30" xlink:href="#p" />
<use x="95" y="30" xlink:href="#p" />
<use x="100" y="30" xlink:href="#p" />
<use x="105" y="30" xlink:href="#p" />
<use x="115" y="30" xlink:href="#p" />
<use x="145" y="30" xlink:href="#p" />
<use x="25" y="35" xlink:href="#p" />
<use x="35" y="35" xlink:href="#p" />
<use x="40" y="35" xlink:href="#p" />
<use x="45" y="35" xlink:href="#p" />
<use x="55" y="35" xlink:href="#p" />
<use x="65" y="35" xlink:href="#p" />
<use x="75" y="35" xlink:href="#p" />
<use x="95" y="35" xlink:href="#p" />
<use x="105" y="35" xlink:href="#p" />
<use x="115" y="35" xlink:href="#p" />
<use x="125" y="35" xlink:href="#p" />
<use x="130" y="35" xlink:href="#p" />
<use x="135" y="35" xlink:href="#p" />
<use x="145" y="35" xlink:href="#p" />
<use x="25" y="40" xlink:href="#p" />
<use x="35" y="40" xlink:href="#p" />
<use x="40" y="40" xlink:href="#p" />
<use x="45" y="40" xlink:href="#p" />
<use x="55" y="40" xlink:href="#p" />
<use x="65" y="40" xlink:href="#p" />
<use x="70" y="40" xlink:href="#p" />
<use x="75" y="40" xlink:href="#p" />
<use x="85" y="40" xlink:href="#p" />
<use x="90" y="40" xlink:href="#p" />
<use x="100" y="40" xlink:href="#p" />
<use x="115" y="40" xlink:href="#p" />
<use x="125" y="40" xlink:href="#p" />
<use x="130" y="40" xlink:href="#p" />
<use x="135" y="40" xlink:href="#p" />
<use x="145" y="40" xlink:href="#p" />
<use x="25" y="45" xlink:href="#p" />
<use x="35" y="45" xlink:href="#p" />
<use x="40" y="45" xlink:href="#p" />
<use x="45" y="45" xlink:href="#p" />
<use x="55" y="45" xlink:href="#p" />
<use x="65" y="45" xlink:href="#p" />
<use x="70" y="45" xlink:href="#p" />
<use x="75" y="45" xlink:href="#p" />
<use x="80" y="45" xlink:href="#p" />
<use x="105" y="45" xlink:href="#p" />
<use x="115" y="45" xlink:href="#p" />
<use x="125" y="45" xlink:href="#p" />
<use x="130" y="45" xlink:href="#p" />
<use x="135" y="45" xlink:href="#p" />
<use x="145" y="45" xlink:href="#p" />
<use x="25" y="50" xlink:href="#p" />
<use x="55" y="50" xlink:href="#p" />
<use x="65" y="50" xlink:href="#p" />
<use x="70" y="50" xlink:href="#p" />
<use x="95" y="50" xlink:href="#p" />
<use x="100" y="50" xlink:href="#p" />
<use x="115" y="50" xlink:href="#p" />
<use x="145" y="50" xlink:href="#p" />
<use x="25" y="55" xlink:href="#p" />
<use x="30" y="55" xlink:href="#p" />
<use x="35" y="55" xlink:href="#p" />
<use x="40" y="55" xlink:href="#p" />
<use x="45" y="55" xlink:href="#p" />
<use x="50" y="55" xlink:href="#p" />
<use x="55" y="55" xlink:href="#p" />
<use x="65" y="55" xlink:href="#p" />
<use x="75" y="55" xlink:href="#p" />
<use x="85" y="55" xlink:href="#p" />
<use x="95" y="55" xlink:href="#p" />
<use x="105" y="55" xlink:href="#p" />
<use x="115" y="55" xlink:href="#p" />
<use x="120" y="55" xlink:href="#p" />
<use x="125" y="55" xlink:href="#p" />
<use x="130" y="55" xlink:href="#p" />
<use x="135" y="55" xlink:href="#p" />
<use x="140" y="55" xlink:href="#p" />
<use x="145" y="55" xlink:href="#p" />
<use x="70" y="60" xlink:href="#p" />
<use x="75" y="60" xlink:href="#p" />
<use x="85" y="60" xlink:href="#p" />
<use x="35" y="65" xlink:href="#p" />
<use x="50" y="65" xlink:href="#p" />
<use x="55" y="65" xlink:href="#p" />
<use x="60" y="65" xlink:href="#p" />
<use x="65" y="65" xlink:href="#p" />
<use x="75" y="65" xlink:href="#p" />
<use x="80" y="65" xlink:href="#p" />
<use x="90" y="65" xlink:href="#p" />
<use x="95" y="65" xlink:href="#p" />
<use x="110" y="65" xlink:href="#p" />
<use x="120" y="65" xlink:href="#p" />
<use x="125" y="65" xlink:href="#p" />
<use x="130" y="65" xlink:href="#p" />
<use x="135" y="65" xlink:href="#p" />
<use x="140" y="65" xlink:href="#p" />
<use x="25" y="70" xlink:href="#p" />
<use x="30" y="70" xlink:href="#p" />
<use x="35" y="70" xlink:href="#p" />
<use x="40" y="70" xlink:href="#p" />
<use x="45" y="70" xlink:href="#p" />
<use x="70" y="70" xlink:href="#p" />
<use x="80" y="70" xlink:href="#p" />
<use x="100" y="70" xlink:href="#p" />
<use x="105" y="70" xlink:href="#p" />
<use x="115" y="70" xlink:href="#p" />
<use x="120" y="70" xlink:href="#p" />
<use x="130" y="70" xlink:href="#p" />
<use x="140" y="70" xlink:href="#p" />
<use x="145" y="70" xlink:href="#p" />
<use x="35" y="75" xlink:href="#p" />
<use x="40" y="75" xlink:href="#p" />
<use x="45" y="75" xlink:href="#p" />
<use x="55" y="75" xlink:href="#p" />
<use x="60" y="75" xlink:href="#p" />
<use x="65" y="75" xlink:href="#p" />
<use x="75" y="75" xlink:href="#p" />
<use x="80" y="75" xlink:href="#p" />
<use x="100" y="75" xlink:href="#p" />
<use x="105" y="75" xlink:href="#p" />
<use x="115" y="75" xlink:href="#p" />
<use x="120" y="75" xlink:href="#p" />
<use x="125" y="75" xlink:href="#p" />
<use x="145" y="75" xlink:href="#p" />
<use x="25" y="80" xlink:href="#p" />
<use x="30" y="80" xlink:href="#p" />
<use x="40" y="80" xlink:href="#p" />
<use x="45" y="80" xlink:href="#p" />
<use x="60" y="80" xlink:href="#p" />
<use x="70" y="80" xlink:href="#p" />
<use x="75" y="80" xlink:href="#p" />
<use x="90" y="80" xlink:href="#p" />
<use x="100" y="80" xlink:href="#p" />
<use x="110" y="80" xlink:href="#p" />
<use x="120" y="80" xlink:href="#p" />
<use x="125" y="80" xlink:href="#p" />
<use x="140" y="80" xlink:href="#p" />
<use x="145" y="80" xlink:href="#p" />
<use x="25" y="85" xlink:href="#p" />
<use x="40" y="85" xlink:href="#p" />
<use x="50" y="85" xlink:href="#p" />
<use x="55" y="85" xlink:href="#p" />
<use x="65" y="85" xlink:href="#p" />
<use x="70" y="85" xlink:href="#p" />
<use x="95" y="85" xlink:href="#p" />
<use x="100" y="85" xlink:href="#p" />
<use x="105" y="85" xlink:href="#p" />
<use x="110" y="85" xlink:href="#p" />
<use x="115" y="85" xlink:href="#p" />
<use x="120" y="85" xlink:href="#p" />
<use x="130" y="85" xlink:href="#p" />
<use x="145" y="85" xlink:href="#p" />
<use x="30" y="90" xlink:href="#p" />
<use x="45" y="90" xlink:href="#p" />
<use x="60" y="90" xlink:href="#p" />
<use x="65" y="90" xlink:href="#p" />
<use x="70" y="90" xlink:href="#p" />
<use x="80" y="90" xlink:href="#p" />
<use x="85" y="90" xlink:href="#p" />
<use x="90" y="90" xlink:href="#p" />
<use x="95" y="90" xlink:href="#p" />
<use x="115" y="90" xlink:href="#p" />
<use x="120" y="90" xlink:href="#p" />
<use x="130" y="90" xlink:href="#p" />
<use x="135" y="90" xlink:href="#p" />
<use x="140" y="90" xlink:href="#p" />
<use x="145" y="90" xlink:href="#p" />
<use x="25" y="95" xlink:href="#p" />
<use x="30" y="95" xlink:href="#p" />
<use x="35" y="95" xlink:href="#p" />
<use x="40" y="95" xlink:href="#p" />
<use x="45" y="95" xlink:href="#p" />
<use x="55" y="95" xlink:href="#p" />
<use x="65" y="95" xlink:href="#p" />
<use x="90" y="95" xlink:href="#p" />
<use x="100" y="95" xlink:href="#p" />
<use x="130" y="95" xlink:href="#p" />
<use x="145" y="95" xlink:href="#p" />
<use x="35" y="100" xlink:href="#p" />
<use x="45" y="100" xlink:href="#p" />
<use x="60" y="100" xlink:href="#p" />
<use x="65" y="100" xlink:href="#p" />
<use x="95" y="100" xlink:href="#p" />
<use x="105" y="100" xlink:href="#p" />
<use x="115" y="100" xlink:href="#p" />
<use x="120" y="100" xlink:href="#p" />
<use x="130" y="100" xlink:href="#p" />
<use x="140" y="100" xlink:href="#p" />
<use x="145" y="100" xlink:href="#p" />
<use x="25" y="105" xlink:href="#p" />
<use x="30" y="105" xlink:href="#p" />
<use x="35" y="105" xlink:href="#p" />
<use x="55" y="105" xlink:href="#p" />
<use x="60" y="105" xlink:href="#p" />
<use x="70" y="105" xlink:href="#p" />
<use x="75" y="105" xlink:href="#p" />
<use x="80" y="105" xlink:href="#p" />
<use x="105" y="105" xlink:href="#p" />
<use x="110" y="105" xlink:href="#p" />
<use x="115" y="105" xlink:href="#p" />
<use x="120" y="105" xlink:href="#p" />
<use x="125" y="105" xlink:href="#p" />
<use x="130" y="105" xlink:href="#p" />
<use x="145" y="105" xlink:href="#p" />
<use x="65" y="110" xlink:href="#p" />
<use x="70" y="110" xlink:href="#p" />
<use x="80" y="110" xlink:href="#p" />
<use x="85" y="110" xlink:href="#p" />
<use x="95" y="110" xlink:href="#p" />
<use x="105" y="110" xlink:href="#p" />
<use x="125" y="110" xlink:href="#p" />
<use x="130" y="110" xlink:href="#p" />
<use x="140" y="110" xlink:href="#p" />
<use x="145" y="110" xlink:href="#p" />
<use x="25" y="115" xlink:href="#p" />
<use x="30" y="115" xlink:href="#p" />
<use x="35" y="115" xlink:href="#p" />
<use x="40" y="115" xlink:href="#p" />
<use x="45" y="115" xlink:href="#p" />
<use x="50" y="115" xlink:href="#p" />
<use x="55" y="115" xlink:href="#p" />
<use x="65" y="115" xlink:href="#p" />
<use x="70" y="115" xlink:href="#p" />
<use x="80" y="115" xlink:href="#p" />
<use x="85" y="115" xlink:href="#p" />
<use x="90" y="115" xlink:href="#p" />
<use x="95" y="115" xlink:href="#p" />
<use x="105" y="115" xlink:href="#p" />
<use x="115" y="115" xlink:href="#p" />
<use x="125" y="115" xlink:href="#p" />
<use x="145" y="115" xlink:href="#p" />
<use x="25" y="120" xlink:href="#p" />
<use x="55" y="120" xlink:href="#p" />
<use x="65" y="120" xlink:href="#p" />
<use x="75" y="120" xlink:href="#p" />
<use x="80" y="120" xlink:href="#p" />
<use x="90" y="120" xlink:href="#p" />
<use x="100" y="120" xlink:href="#p" />
<use x="105" y="120" xlink:href="#p" />
<use x="125" y="120" xlink:href="#p" />
<use x="130" y="120" xlink:href="#p" />
<use x="145" y="120" xlink:href="#p" />
<use x="25" y="125" xlink:href="#p" />
<use x="35" y="125" xlink:href="#p" />
<use x="40" y="125" xlink:href="#p" />
<use x="45" y="125" xlink:href="#p" />
<use x="55" y="125" xlink:href="#p" />
<use x="75" y="125" xlink:href="#p" />
<use x="85" y="125" xlink:href="#p" />
<use x="95" y="125" xlink:href="#p" />
<use x="100" y="125" xlink:href="#p" />
<use x="105" y="125" xlink:href="#p" />
<use x="110" y="125" xlink:href="#p" />
<use x="115" y="125" xlink:href="#p" />
<use x="120" y="125" xlink:href="#p" />
<use x="125" y="125" xlink:href="#p" />
<use x="130" y="125" xlink:href="#p" />
<use x="25" y="130" xlink:href="#p" />
<use x="35" y="130" xlink:href="#p" />
<use x="40" y="130" xlink:href="#p" />
<use x="45" y="130" xlink:href="#p" />
<use x="55" y="130" xlink:href="#p" />
<use x="70" y="130" xlink:href="#p" />
<use x="75" y="130" xlink:href="#p" />
<use x="90" y="130" xlink:href="#p" />
<use x="100" y="130" xlink:href="#p" />
<use x="105" y="130" xlink:href="#p" />
<use x="110" y="130" xlink:href="#p" />
<use x="125" y="130" xlink:href="#p" />
<use x="130" y="130" xlink:href="#p" />
<use x="135" y="130" xlink:href="#p" />
<use x="25" y="135" xlink:href="#p" />
<use x="35" y="135" xlink:href="#p" />
<use x="40" y="135" xlink:href="#p" />
<use x="45" y="135" xlink:href="#p" />
<use x="55" y="135" xlink:href="#p" />
<use x="65" y="135" xlink:href="#p" />
<use x="80" y="135" xlink:href="#p" />
<use x="85" y="135" xlink:href="#p" />
<use x="90" y="135" xlink:href="#p" />
<use x="110" y="135" xlink:href="#p" />
<use x="125" y="135" xlink:href="#p" />
<use x="140" y="135" xlink:href="#p" />
<use x="145" y="135" xlink:href="#p" />
<use x="25" y="140" xlink:href="#p" />
<use x="55" y="140" xlink:href="#p" />
<use x="95" y="140" xlink:href="#p" />
<use x="105" y="140" xlink:href="#p" />
<use x="120" y="140" xlink:href="#p" />
<use x="125" y="140" xlink:href="#p" />
<use x="130" y="140" xlink:href="#p" />
<use x="25" y="145" xlink:href="#p" />
<use x="30" y="145" xlink:href="#p" />
<use x="35" y="145" xlink:href="#p" />
<use x="40" y="145" xlink:href="#p" />
<use x="45" y="145" xlink:href="#p" />
<use x="50" y="145" xlink:href="#p" />
<use x="55" y="145" xlink:href="#p" />
<use x="75" y="145" xlink:href="#p" />
<use x="80" y="145" xlink:href="#p" />
<use x="95" y="145" xlink:href="#p" />
<use x="105" y="145" xlink:href="#p" />
<use x="130" y="145" xlink:href="#p" />
<use x="145" y="145" xlink:href="#p" />
</g>
</svg>